<?xml version="1.0" standalone="no"?><!DOCTYPE svg PUBLIC "-//W3C//DTD SVG 1.1//EN" "http://www.w3.org/Graphics/SVG/1.1/DTD/svg11.dtd"><svg t="1545645119932" class="icon" style="" viewBox="0 0 1024 1024" version="1.1" xmlns="http://www.w3.org/2000/svg" p-id="1938" xmlns:xlink="http://www.w3.org/1999/xlink" width="32" height="32"><defs><style type="text/css"></style></defs><path d="M512 897.6c-108 0-209.6-42.4-285.6-118.4-76-76-118.4-177.6-118.4-285.6 0-108 42.4-209.6 118.4-285.6 76-76 177.6-118.4 285.6-118.4 108 0 209.6 42.4 285.6 118.4 157.6 157.6 157.6 413.6 0 571.2-76 76-177.6 118.4-285.6 118.4z m0-760c-95.2 0-184.8 36.8-252 104-67.2 67.2-104 156.8-104 252s36.8 184.8 104 252c67.2 67.2 156.8 104 252 104 95.2 0 184.8-36.8 252-104 139.2-139.2 139.2-364.8 0-504-67.2-67.2-156.8-104-252-104z" fill="" p-id="1939"></path><path d="M707.872 329.392L348.096 689.16l-31.68-31.68 359.776-359.768z" fill="" p-id="1940"></path><path d="M328 340.8l32-31.2 348 348-32 32z" fill="" p-id="1941"></path></svg>